<svg xmlns="http://www.w3.org/2000/svg" viewBox="0 0 1094.81 723.06"><defs><style>.cls-1{fill:#fff;opacity:0;}.cls-2{fill:red;}</style></defs><g id="Layer_2" data-name="Layer 2"><g id="Layer_1-2" data-name="Layer 1"><rect class="cls-1" width="1094.81" height="723.06"/><path class="cls-2" d="M234.34,320.3c2.8,15.24,9.34,23,19.6,23,11.51,0,17.11-5.6,17.11-20.53v-163h31.28a10.71,10.71,0,0,1,10.72,10.71V319.68c0,42.31-21.78,62.53-59.11,62.53-16.8,0-30.17-5-39.82-14.94a63.67,63.67,0,0,1-17.42-36.08Z"/><path class="cls-2" d="M340.24,377.54V159.79H372A10.2,10.2,0,0,1,382.24,170V377.54Z"/><path class="cls-2" d="M810.43,377.54V285.77l-71.24-126h40a8.46,8.46,0,0,1,7.5,4.55L831,249.07h.62l44.28-84.73a8.48,8.48,0,0,1,7.51-4.55h40l-71.24,126V367.5a10,10,0,0,1-10,10Z"/><path class="cls-2" d="M533.58,159.79a11.19,11.19,0,0,0-10.23,6.63L463.17,301h-.63L405.15,172.66a2.41,2.41,0,0,0-4.61,1v68a39.27,39.27,0,0,0,3.64,16.52l49.23,108.16a10,10,0,0,0,18.13.05l56.64-122.58h.62V377.54h41.07V159.79Z"/><path class="cls-2" d="M720.71,167.84a4.79,4.79,0,0,0-8.5.37L650.8,301h-.63L592.78,172.66a2.41,2.41,0,0,0-4.61,1v76.65l53.27,115.09a10,10,0,0,0,18.1,0l56.27-121.6h.62V377.54h41.06V238.72a24.7,24.7,0,0,0-3.26-12.27Z"/><path class="cls-2" d="M582.31,576.43,651.8,381.87H617a12.18,12.18,0,0,0-11.54,8.28L564.63,510.92a16,16,0,0,0-.09,10Z"/><path class="cls-2" d="M504.82,392.17a15.33,15.33,0,0,0-14.48-10.3H457.07l78.7,217.75h35a4.67,4.67,0,0,0,4.4-3.09h0Z"/></g></g></svg>